<svg width="240" height="28.961" viewBox="0 0 365.12 28.961" xmlns="http://www.w3.org/2000/svg"><g id="svgGroup" stroke-linecap="round" fill-rule="evenodd" font-size="9pt" stroke="#fff" stroke-width="0.25mm" fill="black" style="stroke:#fff;stroke-width:0.25mm;fill:white"><path d="M 270.92 28.48 L 270.92 5.32 L 263.44 22.16 L 259.68 22.16 L 252.16 5.32 L 252.16 28.48 L 248.56 28.48 L 248.56 0.48 L 253.88 0.48 L 261.64 18.2 L 269.28 0.48 L 274.72 0.48 L 274.72 28.48 L 270.92 28.48 Z M 67.84 28.48 L 55.4 5.36 L 55.4 28.48 L 51.8 28.48 L 51.8 0.48 L 56.84 0.48 L 69.2 23.76 L 69.2 0.48 L 72.8 0.48 L 72.8 28.48 L 67.84 28.48 Z M 281.92 28.48 L 281.92 0.48 L 298.72 0.48 L 298.72 3.76 L 285.72 3.76 L 285.72 12.28 L 296.92 12.28 L 296.92 15.48 L 285.72 15.48 L 285.72 25.2 L 298.72 25.2 L 298.72 28.48 L 281.92 28.48 Z M 41.52 17.24 L 41.52 0.48 L 45.2 0.48 L 45.2 17.68 A 16.167 16.167 0 0 1 45.003 20.259 A 12.48 12.48 0 0 1 44.46 22.42 Q 43.72 24.52 42.34 25.98 Q 40.96 27.44 39.04 28.2 Q 37.12 28.96 34.76 28.96 A 13.429 13.429 0 0 1 31.658 28.622 A 8.967 8.967 0 0 1 27.14 26.1 A 9.21 9.21 0 0 1 25.007 22.361 Q 24.571 20.938 24.448 19.225 A 19.394 19.394 0 0 1 24.4 17.84 L 24.4 0.48 L 28.2 0.48 L 28.2 17.24 A 16.217 16.217 0 0 0 28.358 19.583 Q 28.532 20.772 28.898 21.742 A 7.006 7.006 0 0 0 29.82 23.46 A 5.214 5.214 0 0 0 33.027 25.468 A 8.216 8.216 0 0 0 34.76 25.64 A 8.554 8.554 0 0 0 36.762 25.421 A 5.382 5.382 0 0 0 39.84 23.5 A 6.953 6.953 0 0 0 40.958 21.342 Q 41.52 19.622 41.52 17.24 Z M 211.44 26.12 L 213.36 22.92 Q 214.8 24.12 216.6 24.88 A 9.339 9.339 0 0 0 218.748 25.484 A 12.847 12.847 0 0 0 220.8 25.64 A 11.192 11.192 0 0 0 222.619 25.501 Q 223.588 25.342 224.373 24.997 A 5.48 5.48 0 0 0 225.36 24.44 Q 227.04 23.24 227.04 21.2 Q 227.04 20.36 226.8 19.64 A 2.886 2.886 0 0 0 226.415 18.892 Q 226.188 18.569 225.86 18.26 Q 225.16 17.6 223.9 16.94 A 20.488 20.488 0 0 0 222.899 16.453 Q 222.41 16.23 221.845 15.997 A 45.672 45.672 0 0 0 220.64 15.52 Q 218.48 14.68 216.98 13.86 A 11.83 11.83 0 0 1 215.779 13.112 Q 215.176 12.682 214.709 12.214 A 6.96 6.96 0 0 1 214.56 12.06 A 6.117 6.117 0 0 1 213.515 10.566 A 5.574 5.574 0 0 1 213.24 9.9 A 7.336 7.336 0 0 1 212.922 8.508 A 9.947 9.947 0 0 1 212.84 7.2 Q 212.84 5.72 213.46 4.4 A 6.378 6.378 0 0 1 215.077 2.287 A 7.474 7.474 0 0 1 215.3 2.1 A 8.169 8.169 0 0 1 216.946 1.084 A 10.76 10.76 0 0 1 218.3 0.56 A 11.747 11.747 0 0 1 220.332 0.123 A 15.941 15.941 0 0 1 222.36 0 Q 224.84 0 226.8 0.5 Q 228.76 1 230.68 1.92 L 229.28 5.16 A 12.598 12.598 0 0 0 227.63 4.353 A 16.674 16.674 0 0 0 226.1 3.82 Q 224.28 3.28 222.28 3.28 A 11.084 11.084 0 0 0 220.668 3.39 Q 219.821 3.515 219.13 3.781 A 5.087 5.087 0 0 0 218.12 4.3 Q 216.6 5.32 216.6 7 A 4.958 4.958 0 0 0 216.652 7.733 A 3.677 3.677 0 0 0 216.82 8.42 A 2.351 2.351 0 0 0 217.123 8.993 Q 217.349 9.312 217.7 9.62 Q 218.178 10.04 218.93 10.471 A 13.836 13.836 0 0 0 219.54 10.8 A 18.772 18.772 0 0 0 220.443 11.227 Q 220.919 11.437 221.478 11.66 A 46.184 46.184 0 0 0 222.68 12.12 A 35.627 35.627 0 0 1 224.446 12.842 Q 225.65 13.374 226.6 13.92 Q 228.2 14.84 229.16 15.88 A 6.877 6.877 0 0 1 230.129 17.207 A 5.895 5.895 0 0 1 230.54 18.12 A 7.489 7.489 0 0 1 230.919 19.884 A 9.157 9.157 0 0 1 230.96 20.76 A 8.618 8.618 0 0 1 230.758 22.664 A 6.922 6.922 0 0 1 230.2 24.24 Q 229.44 25.76 228.1 26.82 A 8.644 8.644 0 0 1 226.029 28.021 A 10.793 10.793 0 0 1 224.88 28.42 A 13.933 13.933 0 0 1 222.144 28.907 A 16.775 16.775 0 0 1 220.8 28.96 A 18.947 18.947 0 0 1 217.69 28.715 A 15.22 15.22 0 0 1 215.48 28.18 A 15.282 15.282 0 0 1 213.333 27.307 A 11.373 11.373 0 0 1 211.44 26.12 Z M 108.4 23.92 L 109.56 27.08 Q 108.08 27.88 106.18 28.42 A 13.437 13.437 0 0 1 104.194 28.817 Q 103.201 28.942 102.082 28.958 A 22.967 22.967 0 0 1 101.76 28.96 A 13.198 13.198 0 0 1 98.659 28.608 A 11.242 11.242 0 0 1 96.74 27.96 Q 94.48 26.96 92.84 25.1 Q 91.2 23.24 90.3 20.58 A 16.79 16.79 0 0 1 89.549 17.189 A 21.763 21.763 0 0 1 89.4 14.6 A 19.878 19.878 0 0 1 89.717 10.983 A 16.547 16.547 0 0 1 90.3 8.72 A 14.309 14.309 0 0 1 91.795 5.556 A 12.503 12.503 0 0 1 92.88 4.1 Q 94.56 2.16 96.94 1.08 A 12.141 12.141 0 0 1 100.814 0.068 A 14.776 14.776 0 0 1 102.24 0 Q 104.28 0 105.9 0.38 Q 107.52 0.76 108.96 1.44 L 107.8 4.64 Q 106.56 4.04 105.26 3.68 Q 104.143 3.371 102.686 3.327 A 16.282 16.282 0 0 0 102.2 3.32 A 8.734 8.734 0 0 0 99.371 3.772 A 8.159 8.159 0 0 0 98.64 4.06 Q 97 4.8 95.8 6.24 A 9.572 9.572 0 0 0 94.458 8.397 A 12.067 12.067 0 0 0 93.94 9.74 A 13.383 13.383 0 0 0 93.425 12.093 A 18.134 18.134 0 0 0 93.28 14.44 A 16.661 16.661 0 0 0 93.477 17.059 A 13.237 13.237 0 0 0 93.94 19.02 A 12.066 12.066 0 0 0 94.847 21.154 A 9.882 9.882 0 0 0 95.78 22.56 Q 96.96 24.04 98.6 24.84 Q 100.24 25.64 102.2 25.64 Q 104.16 25.64 105.6 25.18 Q 107.04 24.72 108.4 23.92 Z M 114.8 28.8 L 111.56 27.48 L 122.52 0.48 L 126.68 0.48 L 137.48 27.48 L 134 28.88 L 130.88 20.88 L 117.92 20.88 L 114.8 28.8 Z M 161.96 28.8 L 158.72 27.48 L 169.68 0.48 L 173.84 0.48 L 184.64 27.48 L 181.16 28.88 L 178.04 20.88 L 165.08 20.88 L 161.96 28.8 Z M 342.44 28.8 L 339.2 27.48 L 350.16 0.48 L 354.32 0.48 L 365.12 27.48 L 361.64 28.88 L 358.52 20.88 L 345.56 20.88 L 342.44 28.8 Z M 0 3.84 L 0 0.48 L 21 0.48 L 21 3.84 L 12.4 3.84 L 12.4 28.48 L 8.6 28.48 L 8.6 3.84 L 0 3.84 Z M 188.64 28.4 L 188.64 0.56 Q 189.603 0.45 190.877 0.359 A 93.262 93.262 0 0 1 192.1 0.28 Q 193.87 0.177 196.128 0.162 A 117.088 117.088 0 0 1 196.88 0.16 Q 202.04 0.16 204.78 2.08 Q 207.376 3.899 207.512 7.01 A 7.971 7.971 0 0 1 207.52 7.36 A 7.152 7.152 0 0 1 207.306 9.152 A 5.454 5.454 0 0 1 206.36 11.12 Q 205.31 12.496 203.342 13.446 A 12.779 12.779 0 0 1 202.92 13.64 Q 205.64 14.6 207.04 16.28 Q 208.44 17.96 208.44 20.48 Q 208.44 24.285 205.514 26.519 A 9.013 9.013 0 0 1 205.46 26.56 A 9.743 9.743 0 0 1 202.58 28.01 Q 201.246 28.442 199.618 28.638 A 24.328 24.328 0 0 1 196.72 28.8 A 106.463 106.463 0 0 1 193.488 28.753 A 89.945 89.945 0 0 1 192.1 28.7 Q 190.02 28.605 188.759 28.418 A 14.782 14.782 0 0 1 188.64 28.4 Z M 158.12 25.08 L 158.12 28.48 L 141.48 28.48 L 141.48 0.48 L 145.28 0.48 L 145.28 25.08 L 158.12 25.08 Z M 304.12 28.4 L 304.12 0.56 Q 306 0.36 307.8 0.26 Q 309.6 0.16 311.92 0.16 Q 315.195 0.16 317.642 1.087 A 11.522 11.522 0 0 1 318.12 1.28 Q 320.72 2.4 322.44 4.36 Q 324.16 6.32 324.98 8.92 A 18.05 18.05 0 0 1 325.792 13.873 A 20.471 20.471 0 0 1 325.8 14.44 A 18.183 18.183 0 0 1 325.116 19.465 A 17.017 17.017 0 0 1 324.96 19.98 Q 324.12 22.6 322.38 24.56 Q 320.64 26.52 317.94 27.66 Q 315.24 28.8 311.48 28.8 A 89.746 89.746 0 0 1 309.852 28.786 Q 309.046 28.771 308.329 28.741 A 48.64 48.64 0 0 1 307.5 28.7 Q 305.8 28.6 304.12 28.4 Z M 83.8 28.48 L 80 28.48 L 80 0.48 L 83.8 0.48 L 83.8 28.48 Z M 335.2 28.48 L 331.4 28.48 L 331.4 0.48 L 335.2 0.48 L 335.2 28.48 Z M 307.92 3.64 L 307.92 25.28 Q 308.76 25.4 309.68 25.44 Q 310.6 25.48 311.6 25.48 A 14.727 14.727 0 0 0 313.807 25.323 Q 315.138 25.121 316.24 24.66 Q 318.2 23.84 319.46 22.38 A 9.073 9.073 0 0 0 321.094 19.578 A 10.759 10.759 0 0 0 321.32 18.9 Q 321.92 16.88 321.92 14.44 Q 321.92 12.28 321.32 10.3 Q 320.72 8.32 319.48 6.78 A 8.652 8.652 0 0 0 316.674 4.514 A 10.131 10.131 0 0 0 316.32 4.34 A 9.238 9.238 0 0 0 313.945 3.612 A 12.724 12.724 0 0 0 311.8 3.44 Q 310.64 3.44 309.68 3.5 Q 308.72 3.56 307.92 3.64 Z M 197 15.52 L 192.44 15.52 L 192.44 25.4 A 35.734 35.734 0 0 0 194.907 25.594 A 46.042 46.042 0 0 0 197 25.64 Q 199.362 25.64 201.027 25.089 A 6.76 6.76 0 0 0 202.58 24.36 A 4.306 4.306 0 0 0 203.968 22.962 Q 204.467 22.129 204.546 21.049 A 5.667 5.667 0 0 0 204.56 20.64 A 4.691 4.691 0 0 0 204.211 18.8 Q 203.77 17.755 202.773 17.005 A 5.611 5.611 0 0 0 202.6 16.88 A 6.68 6.68 0 0 0 200.73 16 Q 199.161 15.52 197 15.52 Z M 124.4 4.24 L 119.12 17.68 L 129.64 17.68 L 124.4 4.24 Z M 171.56 4.24 L 166.28 17.68 L 176.8 17.68 L 171.56 4.24 Z M 352.04 4.24 L 346.76 17.68 L 357.28 17.68 L 352.04 4.24 Z M 192.44 12.56 L 196.84 12.56 Q 199.155 12.56 200.772 11.862 A 6.132 6.132 0 0 0 201.86 11.26 A 4.707 4.707 0 0 0 202.991 10.173 A 3.871 3.871 0 0 0 203.72 7.84 A 4.473 4.473 0 0 0 203.482 6.346 Q 203.059 5.143 201.88 4.4 A 6.709 6.709 0 0 0 200.095 3.63 Q 199.264 3.399 198.273 3.304 A 15.178 15.178 0 0 0 196.84 3.24 Q 195.52 3.24 194.44 3.3 Q 193.36 3.36 192.44 3.44 L 192.44 12.56 Z" vector-effect="non-scaling-stroke"/></g></svg>